<svg width="22" height="21" viewBox="0 0 22 21" fill="none" xmlns="http://www.w3.org/2000/svg">
<path d="M20.5342 17.6521L16.0151 13.0258C16.8019 11.7215 17.2776 10.2001 17.2776 8.55491C17.2776 3.82997 13.5364 0 8.92092 0C4.30544 0 0.564209 3.82997 0.564209 8.55491C0.564209 13.2799 4.30544 17.1098 8.92092 17.1098C10.528 17.1098 12.0142 16.6229 13.287 15.8187L17.8073 20.4449C18.1711 20.805 18.6586 21.0043 19.1646 20.9999C19.6706 20.9955 20.1547 20.7877 20.5124 20.4213C20.8701 20.0549 21.0729 19.5593 21.077 19.0413C21.081 18.5232 20.8861 18.0243 20.5342 17.6521ZM8.92092 14.4775C5.72609 14.4775 3.13551 11.8255 3.13551 8.55491C3.13551 5.2843 5.72609 2.63228 8.92092 2.63228C12.1158 2.63228 14.7063 5.2843 14.7063 8.55491C14.7063 11.8255 12.1158 14.4775 8.92092 14.4775Z" fill="#1D191D"/>
</svg>
