<svg width="23" height="22" viewBox="0 0 23 22" fill="none" xmlns="http://www.w3.org/2000/svg">
<path d="M17.5008 21.4674C18.3825 21.4674 19.0972 20.6551 19.0972 19.6531C19.0972 18.6511 18.3825 17.8389 17.5008 17.8389C16.6191 17.8389 15.9043 18.6511 15.9043 19.6531C15.9043 20.6551 16.6191 21.4674 17.5008 21.4674Z" fill="#1D191D"/>
<path d="M9.41971 21.4674C10.3014 21.4674 11.0162 20.6551 11.0162 19.6531C11.0162 18.6511 10.3014 17.8389 9.41971 17.8389C8.538 17.8389 7.82324 18.6511 7.82324 19.6531C7.82324 20.6551 8.538 21.4674 9.41971 21.4674Z" fill="#1D191D"/>
<path d="M1.48177 1.96566C2.60704 1.96566 3.7323 1.96566 4.85756 1.96566C5.01932 1.96566 5.18108 1.96566 5.34283 1.96566C5.11778 1.77118 4.89038 1.57403 4.66533 1.37955C4.77786 1.76851 4.89038 2.15748 5.00291 2.5491C5.27485 3.48421 5.54444 4.41931 5.81638 5.35442C6.14224 6.47868 6.47044 7.6056 6.7963 8.73252C7.07996 9.71025 7.36362 10.688 7.64493 11.6657C7.78325 12.1399 7.91453 12.6168 8.05753 13.0884C8.05988 13.0963 8.06222 13.1017 8.06456 13.1097C8.17943 13.5066 8.55687 13.805 8.92961 13.6691C9.27657 13.5413 9.54382 13.1123 9.42191 12.6861C9.30939 12.2971 9.19686 11.9082 9.08433 11.5165C8.8124 10.5814 8.5428 9.64632 8.27086 8.71121C7.945 7.58429 7.61915 6.45736 7.29095 5.33044C7.00729 4.35271 6.72362 3.37498 6.44231 2.39725C6.30399 1.92303 6.17506 1.44616 6.02971 0.974607C6.02737 0.966614 6.02502 0.961286 6.02268 0.953294C5.92422 0.617615 5.664 0.367188 5.34518 0.367188C4.21991 0.367188 3.09465 0.367188 1.96939 0.367188C1.80763 0.367188 1.64587 0.367188 1.48412 0.367188C1.11606 0.367188 0.764416 0.734836 0.780826 1.16642C0.794892 1.60067 1.08793 1.96566 1.48177 1.96566Z" fill="#1D191D"/>
<path d="M8.13398 12.4917C7.7542 13.2616 7.37208 14.0289 6.9923 14.7988C6.93838 14.9107 6.88212 15.0199 6.8282 15.1318C6.56798 15.6567 6.89619 16.3333 7.43537 16.3333C7.84094 16.3333 8.2465 16.3333 8.65207 16.3333C9.62729 16.3333 10.6002 16.3333 11.5754 16.3333C12.7546 16.3333 13.9338 16.3333 15.113 16.3333C16.1327 16.3333 17.1525 16.3333 18.1723 16.3333C18.6669 16.3333 19.1639 16.344 19.6609 16.3333C19.6679 16.3333 19.675 16.3333 19.682 16.3333C20.05 16.3333 20.4017 15.9657 20.3853 15.5341C20.3689 15.0999 20.0758 14.7349 19.682 14.7349C19.2764 14.7349 18.8709 14.7349 18.4653 14.7349C17.4901 14.7349 16.5172 14.7349 15.542 14.7349C14.3628 14.7349 13.1836 14.7349 12.0044 14.7349C10.9846 14.7349 9.96487 14.7349 8.9451 14.7349C8.45046 14.7349 7.95112 14.7189 7.45647 14.7349C7.44944 14.7349 7.44241 14.7349 7.43537 14.7349C7.63698 15.1345 7.84094 15.5368 8.04255 15.9364C8.42232 15.1665 8.80444 14.3992 9.18422 13.6293C9.23814 13.5174 9.2944 13.4081 9.34832 13.2962C9.52883 12.9313 9.43506 12.4064 9.09514 12.204C8.76225 12.0068 8.32621 12.1027 8.13398 12.4917Z" fill="#1D191D"/>
<path d="M15.4346 19.6529C15.444 20.652 15.9949 21.5152 16.813 21.8642C17.5867 22.1945 18.5384 21.9068 19.0659 21.1821C19.6262 20.4095 19.7387 19.3093 19.2722 18.4408C18.8127 17.5829 17.9313 17.1646 17.0709 17.3565C16.1215 17.5669 15.444 18.5713 15.4346 19.6529C15.4322 19.9327 15.6526 20.1991 15.9034 20.1858C16.159 20.1724 16.37 19.9513 16.3723 19.6529C16.3723 19.6103 16.3747 19.565 16.377 19.5224C16.377 19.5037 16.3793 19.4851 16.3817 19.4664C16.3887 19.3599 16.3793 19.5011 16.377 19.4984C16.3606 19.4878 16.4262 19.2586 16.4333 19.2373C16.4403 19.216 16.4544 19.1254 16.4708 19.1201C16.4755 19.1174 16.4286 19.2187 16.4544 19.1654C16.4637 19.1441 16.4731 19.1228 16.4801 19.1015C16.5153 19.0215 16.5575 18.9496 16.5997 18.875C16.6442 18.7978 16.5364 18.9576 16.6114 18.859C16.6349 18.8297 16.6583 18.7978 16.6841 18.7684C16.7099 18.7391 16.7357 18.7098 16.7615 18.6832C16.7732 18.6725 16.7849 18.6592 16.7966 18.6486C16.813 18.6326 16.881 18.5953 16.8201 18.6246C16.7685 18.6486 16.806 18.6379 16.8224 18.6246C16.8388 18.6113 16.8552 18.5979 16.874 18.5846C16.8998 18.566 16.9256 18.5473 16.9537 18.5313C16.9889 18.5074 17.0264 18.4887 17.0639 18.4674C17.0756 18.4594 17.1248 18.4328 17.0639 18.4647C16.9935 18.502 17.0873 18.4567 17.0944 18.4541C17.1576 18.4274 17.2256 18.4061 17.2913 18.3901C17.3124 18.3848 17.3335 18.3821 17.3546 18.3768C17.4061 18.3635 17.31 18.3821 17.31 18.3821C17.3522 18.3821 17.3968 18.3715 17.439 18.3715C17.5163 18.3688 17.5913 18.3715 17.6687 18.3795C17.7554 18.3875 17.5796 18.3608 17.6875 18.3848C17.7297 18.3928 17.7695 18.4061 17.8117 18.4168C17.8469 18.4274 17.882 18.4408 17.9172 18.4541C17.9266 18.4567 17.9735 18.4754 17.9758 18.4781C17.9782 18.486 17.8891 18.4274 17.936 18.4594C18.0016 18.5047 18.0743 18.5393 18.1399 18.5873C18.1563 18.6006 18.1727 18.6139 18.1915 18.6272C18.2079 18.6406 18.2431 18.6512 18.1938 18.6272C18.1469 18.6059 18.1774 18.6113 18.1938 18.6299C18.2102 18.6459 18.2243 18.6592 18.2407 18.6752C18.2993 18.7338 18.3486 18.7978 18.4001 18.8617C18.4705 18.9496 18.3673 18.8004 18.4118 18.8777C18.4306 18.9123 18.4517 18.9443 18.4705 18.9789C18.4892 19.0135 18.508 19.0508 18.5244 19.0855C18.5314 19.1015 18.5384 19.1174 18.5455 19.1334C18.59 19.2293 18.5549 19.1254 18.5431 19.1201C18.5713 19.1308 18.6017 19.3226 18.6111 19.3572C18.6181 19.3919 18.6252 19.4291 18.6322 19.4638C18.651 19.565 18.6299 19.4318 18.6299 19.4291C18.6416 19.4425 18.6369 19.5037 18.6369 19.5197C18.6416 19.5997 18.6416 19.6822 18.6369 19.7622C18.6346 19.7861 18.6322 19.8101 18.6322 19.8368C18.6299 19.89 18.6041 19.882 18.6369 19.8048C18.6205 19.8448 18.6205 19.9034 18.6111 19.946C18.5947 20.0206 18.5689 20.0925 18.5502 20.1671C18.5314 20.2337 18.5924 20.0765 18.5619 20.1378C18.5549 20.1511 18.5478 20.1698 18.5431 20.1858C18.5244 20.2284 18.5056 20.2683 18.4845 20.3083C18.4658 20.3429 18.447 20.3776 18.4259 20.4122C18.3626 20.5214 18.4705 20.3589 18.4165 20.4309C18.365 20.4975 18.3157 20.5614 18.2571 20.62C18.2477 20.6307 18.1915 20.6999 18.1751 20.6999C18.1751 20.6999 18.2712 20.6253 18.1962 20.6786C18.1821 20.6893 18.1704 20.6973 18.1587 20.7079C18.093 20.7559 18.025 20.7958 17.9571 20.8358C17.8844 20.8784 18.0414 20.8038 17.9406 20.8438C17.9055 20.8571 17.8727 20.8704 17.8375 20.8838C17.8023 20.8944 17.7672 20.9051 17.7297 20.9157C17.7132 20.9184 17.6992 20.9237 17.6828 20.9264C17.5796 20.953 17.7578 20.9211 17.6968 20.9264C17.6195 20.9344 17.5445 20.9397 17.4671 20.937C17.4296 20.937 17.3921 20.9317 17.3522 20.929C17.3382 20.929 17.2819 20.9211 17.3499 20.929C17.4272 20.937 17.3335 20.9237 17.3171 20.9211C17.235 20.9024 17.1553 20.8731 17.0756 20.8411C17.0615 20.8358 17.0146 20.8092 17.0733 20.8411C17.1412 20.8784 17.0592 20.8331 17.0451 20.8251C17.0076 20.8038 16.9724 20.7825 16.9373 20.7585C16.9021 20.7346 16.8693 20.7079 16.8341 20.6813C16.7779 20.6413 16.8412 20.7026 16.8552 20.7026C16.8459 20.7026 16.8154 20.6653 16.8083 20.6573C16.7474 20.596 16.6888 20.5321 16.6349 20.4602C16.6349 20.4602 16.595 20.4149 16.595 20.4069C16.595 20.4175 16.6513 20.4975 16.6138 20.4309C16.5903 20.3909 16.5669 20.3536 16.5458 20.3136C16.5223 20.2683 16.5012 20.2204 16.4801 20.1751C16.4309 20.0659 16.5036 20.2604 16.4661 20.1405C16.4379 20.0499 16.4145 19.9593 16.3981 19.8634C16.3958 19.8474 16.3958 19.8234 16.3887 19.8101C16.4239 19.898 16.3958 19.8847 16.3911 19.8234C16.3864 19.7675 16.384 19.7115 16.384 19.6556C16.3817 19.3759 16.1707 19.1095 15.9152 19.1228C15.6526 19.1308 15.4322 19.3546 15.4346 19.6529Z" fill="#1D191D"/>
<path d="M7.35359 19.6529C7.36297 20.652 7.91388 21.5152 8.73204 21.8642C9.50566 22.1945 10.4574 21.9068 10.9849 21.1821C11.5452 20.4095 11.6577 19.3093 11.1912 18.4408C10.7317 17.5829 9.85027 17.1646 8.98991 17.3565C8.03812 17.5669 7.36297 18.5713 7.35359 19.6529C7.35124 19.9327 7.57161 20.1991 7.82245 20.1858C8.07798 20.1724 8.28896 19.9513 8.29131 19.6529C8.29131 19.6103 8.29365 19.565 8.296 19.5224C8.296 19.5037 8.29834 19.4851 8.30069 19.4664C8.30772 19.3599 8.29834 19.5011 8.296 19.4984C8.27959 19.4878 8.34523 19.2586 8.35226 19.2373C8.35929 19.216 8.37336 19.1254 8.38977 19.1201C8.39446 19.1174 8.34757 19.2187 8.37336 19.1654C8.38274 19.1441 8.39211 19.1228 8.39915 19.1015C8.43431 19.0215 8.47651 18.9496 8.51871 18.875C8.56325 18.7978 8.45541 18.9576 8.53043 18.859C8.55387 18.8297 8.57731 18.7978 8.6031 18.7684C8.62889 18.7391 8.65467 18.7098 8.68046 18.6832C8.69218 18.6725 8.7039 18.6592 8.71563 18.6486C8.73204 18.6326 8.80002 18.5953 8.73907 18.6246C8.68749 18.6486 8.725 18.6379 8.74141 18.6246C8.75782 18.6113 8.77423 18.5979 8.79299 18.5846C8.81878 18.566 8.84456 18.5473 8.87269 18.5313C8.90786 18.5074 8.94537 18.4887 8.98288 18.4674C8.9946 18.4594 9.04383 18.4328 8.98288 18.4647C8.91255 18.502 9.00632 18.4567 9.01335 18.4541C9.07665 18.4274 9.14463 18.4061 9.21027 18.3901C9.23137 18.3848 9.25247 18.3821 9.27357 18.3768C9.32514 18.3635 9.22903 18.3821 9.22903 18.3821C9.27123 18.3821 9.31577 18.3715 9.35796 18.3715C9.43533 18.3688 9.51034 18.3715 9.58771 18.3795C9.67444 18.3875 9.49862 18.3608 9.60646 18.3848C9.64866 18.3928 9.68851 18.4061 9.73071 18.4168C9.76587 18.4274 9.80104 18.4408 9.8362 18.4541C9.84558 18.4567 9.89246 18.4754 9.89481 18.4781C9.89715 18.486 9.80807 18.4274 9.85496 18.4594C9.9206 18.5047 9.99327 18.5393 10.0589 18.5873C10.0753 18.6006 10.0917 18.6139 10.1105 18.6272C10.1269 18.6406 10.1621 18.6512 10.1128 18.6272C10.0659 18.6059 10.0964 18.6113 10.1128 18.6299C10.1292 18.6459 10.1433 18.6592 10.1597 18.6752C10.2183 18.7338 10.2676 18.7978 10.3191 18.8617C10.3895 18.9496 10.2863 18.8004 10.3308 18.8777C10.3496 18.9123 10.3707 18.9443 10.3895 18.9789C10.4082 19.0135 10.427 19.0508 10.4434 19.0855C10.4504 19.1015 10.4574 19.1174 10.4645 19.1334C10.509 19.2293 10.4739 19.1254 10.4621 19.1201C10.4903 19.1308 10.5207 19.3226 10.5301 19.3572C10.5371 19.3919 10.5442 19.4291 10.5512 19.4638C10.57 19.565 10.5489 19.4318 10.5489 19.4291C10.5606 19.4425 10.5559 19.5037 10.5559 19.5197C10.5606 19.5997 10.5606 19.6822 10.5559 19.7622C10.5536 19.7861 10.5512 19.8101 10.5512 19.8368C10.5489 19.89 10.5231 19.882 10.5559 19.8048C10.5395 19.8448 10.5395 19.9034 10.5301 19.946C10.5137 20.0206 10.4879 20.0925 10.4692 20.1671C10.4504 20.2337 10.5114 20.0765 10.4809 20.1378C10.4739 20.1511 10.4668 20.1698 10.4621 20.1858C10.4434 20.2284 10.4246 20.2683 10.4035 20.3083C10.3848 20.3429 10.366 20.3776 10.3449 20.4122C10.2816 20.5214 10.3895 20.3589 10.3355 20.4309C10.284 20.4975 10.2347 20.5614 10.1761 20.62C10.1667 20.6307 10.1105 20.6999 10.0941 20.6999C10.0941 20.6999 10.1902 20.6253 10.1152 20.6786C10.1011 20.6893 10.0894 20.6973 10.0777 20.7079C10.012 20.7559 9.94404 20.7958 9.87605 20.8358C9.80338 20.8784 9.96045 20.8038 9.85964 20.8438C9.82448 20.8571 9.79166 20.8704 9.7565 20.8838C9.72133 20.8944 9.68617 20.9051 9.64866 20.9157C9.63225 20.9184 9.61818 20.9237 9.60177 20.9264C9.49862 20.953 9.67679 20.9211 9.61584 20.9264C9.53848 20.9344 9.46346 20.9397 9.3861 20.937C9.34859 20.937 9.31108 20.9317 9.27123 20.929C9.25716 20.929 9.2009 20.9211 9.26888 20.929C9.34624 20.937 9.25247 20.9237 9.23606 20.9211C9.15401 20.9024 9.0743 20.8731 8.9946 20.8411C8.98053 20.8358 8.93365 20.8092 8.99225 20.8411C9.06024 20.8784 8.97819 20.8331 8.96412 20.8251C8.92661 20.8038 8.89145 20.7825 8.85628 20.7585C8.82112 20.7346 8.7883 20.7079 8.75314 20.6813C8.69687 20.6413 8.76017 20.7026 8.77423 20.7026C8.76486 20.7026 8.73438 20.6653 8.72735 20.6573C8.6664 20.596 8.60779 20.5321 8.55387 20.4602C8.55387 20.4602 8.51402 20.4149 8.51402 20.4069C8.51402 20.4175 8.57028 20.4975 8.53277 20.4309C8.50933 20.3909 8.48589 20.3536 8.46479 20.3136C8.44134 20.2683 8.42024 20.2204 8.39915 20.1751C8.34992 20.0659 8.42259 20.2604 8.38508 20.1405C8.35695 20.0499 8.33351 19.9593 8.3171 19.8634C8.31475 19.8474 8.31475 19.8234 8.30772 19.8101C8.34288 19.898 8.31475 19.8847 8.31006 19.8234C8.30537 19.7675 8.30303 19.7115 8.30303 19.6556C8.30069 19.3759 8.0897 19.1095 7.83417 19.1228C7.56926 19.1308 7.3489 19.3546 7.35359 19.6529Z" fill="#1D191D"/>
<path d="M22.5247 4.5498L19.6787 12.8885H8.74256L6.32324 4.5498H22.5247Z" fill="#1D191D"/>
<path d="M22.0726 4.40349C21.7515 5.34393 21.4326 6.28436 21.1115 7.2248C20.6004 8.72469 20.0893 10.2219 19.5806 11.7218C19.4634 12.0655 19.3462 12.4118 19.229 12.7555C19.379 12.625 19.5314 12.4944 19.6814 12.3639C19.3181 12.3639 18.9524 12.3639 18.589 12.3639C17.7193 12.3639 16.8472 12.3639 15.9774 12.3639C14.9249 12.3639 13.8723 12.3639 12.8197 12.3639C11.9101 12.3639 11.0005 12.3639 10.0909 12.3639C9.65019 12.3639 9.20477 12.3426 8.7617 12.3639C8.75466 12.3639 8.74997 12.3639 8.74294 12.3639C8.89298 12.4944 9.04536 12.625 9.19539 12.7555C8.92111 11.8097 8.64917 10.8666 8.37489 9.92088C7.94119 8.42631 7.5075 6.93174 7.07615 5.43451C6.97534 5.09084 6.87688 4.74716 6.77608 4.40083C6.62604 4.62462 6.47366 4.85107 6.32363 5.07485C6.46663 5.07485 6.61197 5.07485 6.75498 5.07485C7.14882 5.07485 7.54266 5.07485 7.9365 5.07485C8.51554 5.07485 9.09459 5.07485 9.67597 5.07485C10.3863 5.07485 11.0966 5.07485 11.8093 5.07485C12.5852 5.07485 13.3589 5.07485 14.1348 5.07485C14.9202 5.07485 15.7079 5.07485 16.4932 5.07485C17.2223 5.07485 17.9513 5.07485 18.6804 5.07485C19.2993 5.07485 19.9182 5.07485 20.5395 5.07485C20.9825 5.07485 21.4256 5.07485 21.8687 5.07485C22.0797 5.07485 22.2906 5.08018 22.4993 5.07485C22.5087 5.07485 22.518 5.07485 22.5274 5.07485C22.7736 5.07485 23.008 4.82975 22.9963 4.54203C22.9846 4.2543 22.79 4.0092 22.5274 4.0092C22.3844 4.0092 22.2391 4.0092 22.0961 4.0092C21.7022 4.0092 21.3084 4.0092 20.9145 4.0092C20.3355 4.0092 19.7565 4.0092 19.1751 4.0092C18.4647 4.0092 17.7544 4.0092 17.0418 4.0092C16.2658 4.0092 15.4922 4.0092 14.7162 4.0092C13.9309 4.0092 13.1432 4.0092 12.3579 4.0092C11.6288 4.0092 10.8997 4.0092 10.1706 4.0092C9.55172 4.0092 8.93283 4.0092 8.31159 4.0092C7.86852 4.0092 7.42545 4.0092 6.98237 4.0092C6.77139 4.0092 6.5604 4.00388 6.35176 4.0092C6.34238 4.0092 6.333 4.0092 6.32363 4.0092C6.03059 4.0092 5.77506 4.35288 5.87118 4.68323C6.14546 5.62899 6.4174 6.57209 6.69168 7.51785C7.12538 9.01242 7.55907 10.507 7.99042 12.0042C8.09123 12.3479 8.18969 12.6916 8.29049 13.0379C8.35613 13.2617 8.52961 13.4295 8.74294 13.4295C9.10631 13.4295 9.47202 13.4295 9.83539 13.4295C10.7051 13.4295 11.5772 13.4295 12.4469 13.4295C13.4995 13.4295 14.5521 13.4295 15.6047 13.4295C16.5143 13.4295 17.4239 13.4295 18.3335 13.4295C18.7742 13.4295 19.2196 13.4482 19.6627 13.4295C19.6697 13.4295 19.6744 13.4295 19.6814 13.4295C19.9041 13.4295 20.0589 13.259 20.1339 13.0379C20.4551 12.0975 20.7739 11.157 21.0951 10.2166C21.6061 8.7167 22.1172 7.21947 22.6259 5.71957C22.7431 5.3759 22.8603 5.02956 22.9775 4.68589C23.0666 4.42481 22.8791 4.08913 22.6493 4.03052C22.3797 3.96125 22.1664 4.12376 22.0726 4.40349Z" fill="#1D191D"/>
</svg>
