<svg width="19" height="17" viewBox="0 0 19 17" fill="none" xmlns="http://www.w3.org/2000/svg">
<path d="M9.40231 11.7549C9.72683 11.7549 9.98992 11.3887 9.98992 10.937C9.98992 10.4853 9.72683 10.1191 9.40231 10.1191C9.07778 10.1191 8.8147 10.4853 8.8147 10.937C8.8147 11.3887 9.07778 11.7549 9.40231 11.7549Z" fill="#F4F1F1"/>
<path d="M0.000732422 0.304688V7.17483L0.940907 8.48343H2.93878V4.39406H15.8662V8.48343H17.864L18.8042 7.17483V0.304688H0.000732422Z" fill="#F4F1F1"/>
<path d="M13.5158 12.5738C12.5168 12.5738 11.7529 13.637 11.7529 15.0274H7.05206C7.05206 13.637 6.28817 12.5738 5.28923 12.5738V5.21289H4.11401V16.6631H14.691V5.21289H13.5158V12.5738Z" fill="#F4F1F1"/>
<path d="M11.7525 6.03077C11.7525 5.70362 11.6937 5.45825 11.6349 5.21289H7.22787C7.16911 5.45825 7.11035 5.70362 7.11035 6.03077C7.11035 7.42115 8.16805 8.48439 9.46079 8.48439C10.7535 8.48439 11.7525 7.42115 11.7525 6.03077Z" fill="#F4F1F1"/>
</svg>
