<svg width="13" height="16" viewBox="0 0 13 16" fill="none" xmlns="http://www.w3.org/2000/svg">
<path d="M6.53888 16C6.80134 16 7.25806 16 8.8492 14.5113C10.7642 12.7196 13 9.57102 13 6.60683C13 4.85459 12.3152 3.17412 11.0962 1.9351C9.87721 0.696075 8.22391 0 6.5 0C4.77609 0 3.12279 0.696075 1.90381 1.9351C0.684819 3.17412 0 4.85459 0 6.60683C0 11.2639 5.33674 15.9012 6.53888 16ZM6.5 2.67106C7.11267 2.67106 7.71158 2.85572 8.22099 3.2017C8.73041 3.54767 9.12745 4.03942 9.36191 4.61475C9.59636 5.19009 9.65771 5.82317 9.53819 6.43394C9.41866 7.04472 9.12363 7.60575 8.69041 8.04609C8.25719 8.48643 7.70523 8.78631 7.10433 8.9078C6.50344 9.02929 5.88059 8.96694 5.31456 8.72862C4.74853 8.49031 4.26473 8.08675 3.92435 7.56896C3.58397 7.05117 3.40229 6.44242 3.40229 5.81968C3.40315 4.98488 3.72979 4.18452 4.31054 3.59423C4.89128 3.00394 5.6787 2.67193 6.5 2.67106Z" fill="#F4F1F1"/>
</svg>
