<svg width="17" height="17" viewBox="0 0 17 17" fill="none" xmlns="http://www.w3.org/2000/svg">
<path d="M3.13223 13.4651C3.16776 13.3186 3.17059 13.1654 3.14051 13.0175C3.11043 12.8696 3.04824 12.7309 2.95874 12.6121C2.8701 12.4927 2.75642 12.3963 2.62648 12.3301C2.49653 12.264 2.35378 12.2299 2.20922 12.2304H1.24132C1.15645 12.2305 1.07403 12.2601 1.00715 12.3147C0.940283 12.3693 0.892803 12.4457 0.872265 12.5318L0.494082 14.1131L0.490278 14.1298L0.111334 15.712C0.0895161 15.8133 0.106501 15.9195 0.158656 16.0078C0.210811 16.0962 0.293996 16.1598 0.39042 16.1849C0.486845 16.2101 0.588855 16.1948 0.674635 16.1423C0.760415 16.0899 0.823155 16.0045 0.849437 15.9044L1.15838 14.6156H2.11487C2.5524 14.6156 2.93211 14.3055 3.03788 13.8627L3.13223 13.4651ZM2.29901 13.6711C2.28851 13.7139 2.26462 13.7519 2.23113 13.779C2.19763 13.806 2.15645 13.8207 2.11411 13.8205H1.34861L1.53884 13.0255H2.20998C2.23889 13.0255 2.2674 13.0325 2.29336 13.0458C2.31931 13.0591 2.34203 13.0783 2.35978 13.1022C2.37753 13.126 2.38985 13.1538 2.3958 13.1833C2.40175 13.2129 2.40118 13.2435 2.39413 13.2727L2.29901 13.6711ZM5.51851 13.8325C5.44391 13.8127 5.3653 13.8174 5.29331 13.8458C5.22133 13.8743 5.15943 13.9251 5.11598 13.9915C4.95056 13.8814 4.75887 13.8222 4.56278 13.8205H4.021C3.55303 13.8205 3.14745 14.1521 3.03407 14.6251L2.98385 14.8358C2.90471 15.1673 2.97472 15.5124 3.17637 15.7811C3.37801 16.0514 3.6801 16.2057 4.0073 16.2057H4.54909C4.65942 16.2057 4.76519 16.1842 4.86563 16.15C4.89379 16.1667 4.92118 16.185 4.9539 16.1938C5.00237 16.2066 5.05279 16.2093 5.10226 16.2017C5.15173 16.194 5.19927 16.1763 5.24213 16.1494C5.285 16.1225 5.32234 16.087 5.35202 16.0449C5.38169 16.0029 5.4031 15.9551 5.41503 15.9044L5.79549 14.3143C5.81988 14.212 5.80441 14.1038 5.75247 14.0134C5.70053 13.9231 5.61638 13.858 5.51851 13.8325ZM4.0073 15.4106C3.9627 15.4107 3.91867 15.4001 3.87857 15.3797C3.83846 15.3593 3.80335 15.3296 3.7759 15.2929C3.74845 15.2562 3.72939 15.2134 3.72017 15.1678C3.71095 15.1222 3.71182 15.075 3.72272 15.0298L3.77294 14.8183C3.7866 14.7605 3.81849 14.7091 3.86349 14.6724C3.90848 14.6358 3.96396 14.6161 4.021 14.6164H4.56278C4.60739 14.6163 4.65142 14.6269 4.69152 14.6473C4.73162 14.6677 4.76674 14.6974 4.79419 14.7341C4.82164 14.7708 4.8407 14.8136 4.84992 14.8592C4.85913 14.9048 4.85826 14.952 4.84737 14.9972L4.79715 15.2087C4.78349 15.2665 4.7516 15.3179 4.7066 15.3546C4.66161 15.3912 4.60613 15.4109 4.54909 15.4106H4.0073ZM12.2634 13.4651C12.2989 13.3186 12.3018 13.1654 12.2717 13.0175C12.2416 12.8696 12.1794 12.7309 12.0899 12.6121C12.0012 12.4929 11.8875 12.3965 11.7575 12.3304C11.6276 12.2642 11.4849 12.23 11.3404 12.2304H10.3725C10.2876 12.2305 10.2052 12.2601 10.1383 12.3147C10.0715 12.3693 10.024 12.4457 10.0034 12.5318L9.62526 14.1131L9.62146 14.1298L9.24251 15.712C9.2207 15.8133 9.23768 15.9195 9.28983 16.0078C9.34199 16.0962 9.42517 16.1598 9.5216 16.1849C9.61802 16.2101 9.72003 16.1948 9.80581 16.1423C9.89159 16.0899 9.95433 16.0045 9.98062 15.9044L10.2888 14.6156H11.2453C11.6828 14.6156 12.0625 14.3055 12.1683 13.8627L12.2634 13.4651ZM11.4302 13.6711C11.42 13.7139 11.3962 13.752 11.3629 13.7791C11.3295 13.8062 11.2883 13.8208 11.246 13.8205H10.4798L10.67 13.0255H11.3412C11.3701 13.0255 11.3986 13.0325 11.4245 13.0458C11.4505 13.0591 11.4732 13.0783 11.491 13.1022C11.5087 13.126 11.521 13.1538 11.527 13.1833C11.5329 13.2129 11.5324 13.2435 11.5253 13.2727L11.4302 13.6711ZM14.6497 13.8325C14.575 13.8127 14.4962 13.8173 14.4241 13.8457C14.352 13.8742 14.29 13.925 14.2464 13.9915C14.0812 13.8816 13.8898 13.8223 13.694 13.8205H13.1522C12.6842 13.8205 12.2786 14.1521 12.1653 14.6251L12.115 14.8358C12.0359 15.1673 12.1059 15.5124 12.3075 15.7811C12.4059 15.9133 12.5319 16.0203 12.676 16.0937C12.82 16.1672 12.9782 16.2052 13.1385 16.2049H13.6803C13.7906 16.2049 13.8964 16.1834 13.9968 16.1492C14.025 16.1659 14.0524 16.1842 14.0851 16.193C14.1335 16.2058 14.1839 16.2085 14.2333 16.201C14.2827 16.1934 14.3302 16.1757 14.3731 16.1489C14.416 16.122 14.4533 16.0866 14.483 16.0447C14.5127 16.0027 14.5342 15.955 14.5462 15.9044L14.9267 14.3143C14.9511 14.212 14.9356 14.1038 14.8836 14.0134C14.8317 13.9231 14.7476 13.858 14.6497 13.8325ZM13.1385 15.4106C13.0939 15.4107 13.0498 15.4001 13.0097 15.3797C12.9696 15.3593 12.9345 15.3296 12.9071 15.2929C12.8796 15.2562 12.8606 15.2134 12.8514 15.1678C12.8421 15.1222 12.843 15.075 12.8539 15.0298L12.9041 14.8183C12.9178 14.7605 12.9497 14.7091 12.9947 14.6724C13.0397 14.6358 13.0951 14.6161 13.1522 14.6164H13.694C13.7386 14.6163 13.7826 14.6269 13.8227 14.6473C13.8628 14.6677 13.8979 14.6974 13.9254 14.7341C13.9528 14.7708 13.9719 14.8136 13.9811 14.8592C13.9903 14.9048 13.9894 14.952 13.9786 14.9972L13.9283 15.2087C13.9147 15.2665 13.8828 15.3179 13.8378 15.3546C13.7928 15.3912 13.7373 15.4109 13.6803 15.4106H13.1385ZM8.17797 13.9636L7.44747 14.8803L6.88439 13.9978C6.82714 13.9135 6.74068 13.8557 6.64337 13.8369C6.54605 13.818 6.44553 13.8396 6.36315 13.8969C6.28077 13.9542 6.22301 14.0428 6.20212 14.1439C6.18124 14.245 6.19887 14.3506 6.25129 14.4383L6.93917 15.5164L6.27564 16.3488C6.21115 16.4299 6.17999 16.5344 6.18898 16.6394C6.19796 16.7444 6.24635 16.8414 6.32358 16.9093C6.4017 16.9757 6.50162 17.0075 6.6019 16.9978C6.70218 16.9882 6.79485 16.9378 6.86004 16.8576L8.76236 14.4725C8.82685 14.3914 8.85801 14.2869 8.84903 14.1819C8.84005 14.0769 8.79166 13.9798 8.71443 13.912C8.63654 13.845 8.53648 13.8128 8.43602 13.8225C8.33556 13.8322 8.24282 13.8829 8.17797 13.9636ZM16.552 12.2424C16.5035 12.2294 16.4531 12.2266 16.4036 12.2342C16.3541 12.2418 16.3065 12.2595 16.2636 12.2865C16.2207 12.3134 16.1834 12.3489 16.1537 12.391C16.1241 12.4331 16.1027 12.481 16.0909 12.5318L15.33 15.712C15.3081 15.8133 15.3251 15.9195 15.3773 16.0078C15.4294 16.0962 15.5126 16.1598 15.6091 16.1849C15.7055 16.2101 15.8075 16.1948 15.8933 16.1423C15.979 16.0899 16.0418 16.0045 16.0681 15.9044L16.829 12.7242C16.8534 12.6219 16.8379 12.5137 16.786 12.4233C16.734 12.333 16.6499 12.2679 16.552 12.2424ZM13.0426 6.28982L13.3241 5.11156C13.4817 4.45087 13.3576 3.76554 12.9924 3.27658C12.8755 3.11394 12.7271 2.97884 12.557 2.88008C12.3868 2.78131 12.1986 2.7211 12.0047 2.70335L12.0192 2.6C12.0584 2.31473 12.0385 2.02396 11.9608 1.74744C11.883 1.47091 11.7492 1.21511 11.5685 0.997383C11.3878 0.779657 11.1643 0.60511 10.9133 0.485589C10.6623 0.366068 10.3896 0.304372 10.1138 0.304689H5.80691C5.71779 0.304847 5.63154 0.337621 5.56315 0.397316C5.49475 0.457011 5.44854 0.539855 5.43253 0.631454L3.91067 9.377C3.90047 9.4343 3.90251 9.49325 3.91664 9.54963C3.93077 9.60602 3.95664 9.65845 3.9924 9.70318C4.02816 9.74791 4.07293 9.78384 4.12352 9.80841C4.17411 9.83297 4.22926 9.84556 4.28504 9.84528H6.08008L5.81756 10.9417C5.80356 11.0003 5.80254 11.0615 5.81459 11.1207C5.82664 11.1798 5.85144 11.2353 5.8871 11.2829C5.92276 11.3305 5.96833 11.3689 6.02037 11.3954C6.0724 11.4218 6.12952 11.4355 6.18737 11.4354H8.0897C8.17457 11.4354 8.25699 11.4057 8.32386 11.3511C8.39073 11.2965 8.43821 11.2201 8.45875 11.1341L9.1474 8.25518H10.6327C11.1868 8.25597 11.7252 8.06286 12.162 7.70664C12.5988 7.35042 12.9088 6.85162 13.0426 6.28982ZM8.85063 7.46013C8.76577 7.46016 8.68334 7.48983 8.61647 7.54443C8.5496 7.59903 8.50212 7.67542 8.48158 7.76146L7.79218 10.6403H6.67513L6.93765 9.54396L7.62629 6.66508H8.85063C9.57485 6.66211 10.274 6.38787 10.8212 5.89216C11.3684 5.39645 11.7273 4.71214 11.8327 3.96351L11.8982 3.48568C12.1348 3.48727 12.2977 3.63913 12.3928 3.76633C12.6112 4.05971 12.6857 4.50096 12.5853 4.91995L12.3037 6.09821C12.211 6.48761 11.9961 6.83334 11.6934 7.08031C11.3907 7.32728 11.0176 7.46128 10.6335 7.46093L8.85063 7.46013Z" fill="#F4F1F1"/>
</svg>
