<svg width="17" height="17" viewBox="0 0 17 17" fill="none" xmlns="http://www.w3.org/2000/svg">
<path d="M16.374 2.92216C16.3195 2.83523 16.2505 2.76187 16.171 2.70644C16.0916 2.651 16.0032 2.61464 15.9113 2.59952L2.91256 0.314843C2.82071 0.297911 2.72688 0.302185 2.63647 0.327419C2.54607 0.352653 2.46088 0.398347 2.38584 0.46186C2.3108 0.525374 2.24738 0.605448 2.19926 0.697457C2.15114 0.789466 2.11926 0.891587 2.10548 0.997919L1.88422 2.68672C1.88422 2.68672 1.88422 2.70416 1.88422 2.71288L1.70571 4.08775C1.70318 4.09523 1.70318 4.10353 1.70571 4.11101C1.70315 4.12244 1.70315 4.13445 1.70571 4.14589L1.54228 5.38414H1.12994C1.03641 5.38414 0.943794 5.40554 0.857442 5.44709C0.77109 5.48865 0.692704 5.54955 0.626798 5.62628C0.560893 5.70301 0.508772 5.79406 0.473437 5.89418C0.438103 5.9943 0.420253 6.10152 0.420916 6.20965V15.8425C0.421579 16.0596 0.496492 16.2677 0.629317 16.4213C0.762141 16.5748 0.9421 16.6614 1.12994 16.6622H14.2771C14.4651 16.6622 14.6454 16.5758 14.7784 16.4221C14.9114 16.2684 14.9861 16.0599 14.9861 15.8425V13.5782C15.1319 13.4503 15.2285 13.2614 15.2551 13.052L16.0974 6.65728C16.0974 6.65728 16.0974 6.63984 16.0974 6.63403L16.2809 5.23009L16.5122 3.54129C16.5265 3.43264 16.5217 3.32177 16.4979 3.21537C16.4741 3.10896 16.432 3.00922 16.374 2.92216ZM1.92948 4.30576L8.11207 5.39287H1.78114L1.92948 4.30576ZM14.7523 15.8425C14.7523 15.9836 14.7038 16.1189 14.6175 16.2186C14.5312 16.3184 14.4142 16.3744 14.2921 16.3744H1.12994C1.00835 16.3736 0.891961 16.3173 0.806217 16.2176C0.720472 16.1179 0.672341 15.9831 0.672343 15.8425V14.2729H14.7523V15.8425ZM14.7523 6.43928V12.5521H0.672343V6.20965C0.672343 6.06857 0.720819 5.93328 0.807107 5.83352C0.893395 5.73376 1.01043 5.67772 1.13245 5.67772H14.2771C14.3991 5.67772 14.5161 5.73376 14.6024 5.83352C14.6887 5.93328 14.7372 6.06857 14.7372 6.20965L14.7523 6.43928ZM15.0037 13.0084C15.0006 13.0413 14.9938 13.0735 14.9836 13.1044V6.60206L15.8259 6.7503L15.0037 13.0084ZM16.2608 3.48606L16.0572 5.04115L2.14822 2.59952L2.35188 1.04152C2.35985 0.972572 2.38005 0.906267 2.41119 0.84675C2.44234 0.787234 2.48378 0.735786 2.5329 0.695622C2.58142 0.653834 2.63662 0.623583 2.69531 0.606619C2.75401 0.589656 2.81503 0.586316 2.87484 0.596793L15.8736 2.88147C15.9334 2.89161 15.9908 2.91532 16.0426 2.95124C16.0944 2.98716 16.1395 3.03458 16.1753 3.09075C16.2117 3.14668 16.2381 3.21049 16.2527 3.27839C16.2674 3.34629 16.2702 3.41691 16.2608 3.48606Z" fill="#F4F1F1"/>
<path d="M2.11058 8.14069H4.73799C4.77133 8.14069 4.80331 8.12538 4.82688 8.09813C4.85046 8.07087 4.8637 8.0339 4.8637 7.99536C4.8637 7.95681 4.85046 7.91985 4.82688 7.89259C4.80331 7.86534 4.77133 7.85002 4.73799 7.85002H2.11058C2.07724 7.85002 2.04526 7.86534 2.02168 7.89259C1.99811 7.91985 1.98486 7.95681 1.98486 7.99536C1.98486 8.0339 1.99811 8.07087 2.02168 8.09813C2.04526 8.12538 2.07724 8.14069 2.11058 8.14069ZM6.75695 9.54464H2.11058C2.07724 9.54464 2.04526 9.55995 2.02168 9.5872C1.99811 9.61446 1.98486 9.65143 1.98486 9.68997C1.98486 9.72852 1.99811 9.76548 2.02168 9.79274C2.04526 9.82 2.07724 9.83531 2.11058 9.83531H6.75695C6.79029 9.83531 6.82227 9.82 6.84584 9.79274C6.86942 9.76548 6.88266 9.72852 6.88266 9.68997C6.88266 9.65143 6.86942 9.61446 6.84584 9.5872C6.82227 9.55995 6.79029 9.54464 6.75695 9.54464ZM12.2129 7.41111C11.9294 7.40988 11.6538 7.51948 11.431 7.72213C11.2424 7.55148 11.0162 7.44555 10.7781 7.41641C10.54 7.38727 10.2996 7.4361 10.0843 7.55733C9.86902 7.67855 9.68757 7.8673 9.56063 8.10202C9.43369 8.33674 9.36638 8.60799 9.36638 8.88481C9.36638 9.16164 9.43369 9.43288 9.56063 9.66761C9.68757 9.90233 9.86902 10.0911 10.0843 10.2123C10.2996 10.3335 10.54 10.3824 10.7781 10.3532C11.0162 10.3241 11.2424 10.2181 11.431 10.0475C11.6538 10.2501 11.9294 10.3597 12.2129 10.3585C12.5415 10.3416 12.8518 10.1789 13.0792 9.90406C13.3066 9.62926 13.4335 9.26364 13.4335 8.88336C13.4335 8.50308 13.3066 8.13746 13.0792 7.86266C12.8518 7.58786 12.5415 7.42507 12.2129 7.4082V7.41111ZM14.2495 7.65818C14.2161 7.65818 14.1842 7.67349 14.1606 7.70075C14.137 7.728 14.1238 7.76497 14.1238 7.80352V10.8091C14.1238 10.8476 14.137 10.8846 14.1606 10.9118C14.1842 10.9391 14.2161 10.9544 14.2495 10.9544C14.2826 10.9536 14.3142 10.9381 14.3377 10.911C14.3611 10.8839 14.3745 10.8474 14.3752 10.8091V7.80352C14.3752 7.76497 14.3619 7.728 14.3384 7.70075C14.3148 7.67349 14.2828 7.65818 14.2495 7.65818ZM14.2495 11.2741C14.2161 11.2741 14.1842 11.2894 14.1606 11.3167C14.137 11.344 14.1238 11.3809 14.1238 11.4195V11.5648C14.1238 11.6033 14.137 11.6403 14.1606 11.6676C14.1842 11.6948 14.2161 11.7101 14.2495 11.7101C14.2826 11.7094 14.3142 11.6938 14.3377 11.6667C14.3611 11.6396 14.3745 11.6031 14.3752 11.5648V11.4195C14.3745 11.3812 14.3611 11.3446 14.3377 11.3175C14.3142 11.2904 14.2826 11.2749 14.2495 11.2741Z" fill="#F4F1F1"/>
</svg>
