<svg width="22" height="22" viewBox="0 0 22 22" fill="none" xmlns="http://www.w3.org/2000/svg">
<path d="M11.0001 0.655273C8.25743 0.658358 5.62797 1.74925 3.68861 3.68861C1.74925 5.62797 0.658358 8.25743 0.655273 11.0001C0.659936 13.7423 1.75133 16.3708 3.69035 18.3098C5.62938 20.2489 8.25791 21.3403 11.0001 21.3449C13.7437 21.3449 16.375 20.255 18.315 18.315C20.255 16.375 21.3449 13.7437 21.3449 11.0001C21.3449 8.25648 20.255 5.62524 18.315 3.6852C16.375 1.74517 13.7437 0.655273 11.0001 0.655273ZM17.2923 16.9693C16.7113 15.7976 15.8143 14.8115 14.7027 14.1223C13.5911 13.4332 12.309 13.0684 11.0011 13.0691C9.69314 13.0698 8.41144 13.436 7.30056 14.1263C6.18968 14.8167 5.29382 15.8038 4.71405 16.9762C3.16707 15.3719 2.30505 13.2287 2.31045 11.0001C2.31045 8.69546 3.22596 6.48521 4.85559 4.85559C6.48521 3.22596 8.69546 2.31045 11.0001 2.31045C13.3047 2.31045 15.515 3.22596 17.1446 4.85559C18.7742 6.48521 19.6898 8.69546 19.6898 11.0001C19.6949 13.2255 18.8353 15.3658 17.2923 16.9693ZM11.0001 4.7932C10.2635 4.7932 9.54351 5.01162 8.93108 5.42084C8.31865 5.83005 7.84132 6.41168 7.55945 7.09218C7.27758 7.77267 7.20382 8.52147 7.34752 9.24389C7.49122 9.9663 7.84591 10.6299 8.36674 11.1507C8.88757 11.6715 9.55115 12.0262 10.2736 12.1699C10.996 12.3136 11.7448 12.2399 12.4253 11.958C13.1058 11.6761 13.6874 11.1988 14.0966 10.5864C14.5058 9.97393 14.7242 9.25391 14.7242 8.51734C14.7242 8.02828 14.6279 7.54401 14.4408 7.09218C14.2536 6.64034 13.9793 6.2298 13.6335 5.88398C13.2876 5.53816 12.8771 5.26384 12.4253 5.07669C11.9734 4.88953 11.4892 4.7932 11.0001 4.7932Z" fill="#1D191D"/>
</svg>
